<svg width="26" height="26" viewBox="0 0 26 26" fill="none" xmlns="http://www.w3.org/2000/svg">
<path d="M12.6769 21.6039C12.8184 21.6039 12.9636 21.5721 13.1124 21.5086C13.2612 21.445 13.3814 21.3674 13.4731 21.2757L21.9188 12.8289C22.1911 12.5566 22.4012 12.2786 22.5493 11.9947C22.6966 11.7095 22.7703 11.3967 22.7703 11.0566C22.7703 10.7121 22.6966 10.3777 22.5493 10.0534C22.4012 9.72841 22.1911 9.4323 21.9188 9.16508L17.8563 5.10258C17.5884 4.8303 17.3128 4.6306 17.0297 4.50349C16.7473 4.37638 16.4339 4.31283 16.0894 4.31283C15.7492 4.31283 15.4332 4.37638 15.1415 4.50349C14.8497 4.6306 14.5749 4.82994 14.3171 5.10149L13.3724 6.04616L15.3766 8.05574C15.5918 8.26735 15.7525 8.50785 15.8586 8.77724C15.9641 9.04663 16.0168 9.31999 16.0168 9.59733C16.0168 10.1614 15.8323 10.6279 15.4632 10.997C15.0942 11.366 14.628 11.5502 14.0646 11.5495C13.7866 11.5495 13.5154 11.5072 13.2511 11.4227C12.9867 11.3382 12.7487 11.1902 12.5371 10.9786L10.4647 8.91374L5.78688 13.5905C5.67783 13.7003 5.59586 13.8249 5.54097 13.9642C5.48608 14.1036 5.45863 14.2445 5.45863 14.3867C5.45863 14.6424 5.54061 14.8529 5.70455 15.0183C5.86777 15.1844 6.07722 15.2675 6.33288 15.2675C6.47444 15.2675 6.61961 15.2357 6.76838 15.1722C6.91716 15.1079 7.03741 15.0299 7.12913 14.9382L10.5622 11.5051L11.3292 12.2721L7.90155 15.7062C7.79177 15.8153 7.70944 15.9395 7.65455 16.0789C7.60038 16.219 7.5733 16.3599 7.5733 16.5014C7.5733 16.7434 7.65852 16.9495 7.82897 17.12C7.99941 17.2904 8.20561 17.376 8.44755 17.3767C8.58911 17.3767 8.73427 17.3446 8.88305 17.2803C9.03183 17.216 9.15208 17.1384 9.2438 17.0474L12.9271 13.3706L13.6941 14.1365L10.0162 17.8198C9.92016 17.9115 9.84144 18.0318 9.78005 18.1806C9.71794 18.3294 9.68688 18.4745 9.68688 18.6161C9.68688 18.8573 9.77247 19.0631 9.94363 19.2336C10.1141 19.4055 10.3203 19.4914 10.5622 19.4914C10.7038 19.4914 10.8446 19.464 10.9847 19.4091C11.1248 19.3542 11.2491 19.2719 11.3574 19.1621L15.0407 15.4842L15.8077 16.2512L12.1244 19.9345C12.0153 20.0443 11.9334 20.1761 11.8785 20.3299C11.8236 20.4837 11.7961 20.6242 11.7961 20.7513C11.7961 21.007 11.8861 21.2132 12.0659 21.3699C12.2457 21.5266 12.4494 21.605 12.6769 21.605M12.6704 22.6883C12.1136 22.6883 11.6369 22.4847 11.2404 22.0773C10.8439 21.6693 10.6698 21.1659 10.7182 20.5672C10.1043 20.5744 9.59336 20.3913 9.1853 20.0179C8.77725 19.6438 8.58333 19.1224 8.60355 18.4536C7.93477 18.4608 7.40755 18.2694 7.02188 17.8794C6.63622 17.4894 6.46072 16.9759 6.49538 16.3389C5.89305 16.3461 5.38894 16.1764 4.98305 15.8297C4.57788 15.4845 4.3753 15.0035 4.3753 14.3867C4.3753 14.1087 4.42911 13.8306 4.53672 13.5526C4.64433 13.2738 4.80322 13.029 5.01338 12.8181L10.4647 7.37324L13.2619 10.1704C13.3536 10.2665 13.467 10.3455 13.6021 10.4077C13.7371 10.4698 13.8891 10.5005 14.0581 10.4997C14.29 10.4997 14.4947 10.4189 14.6724 10.2571C14.8501 10.0953 14.9392 9.88441 14.94 9.62441C14.94 9.45541 14.9089 9.30374 14.8468 9.16941C14.7847 9.03435 14.706 8.92096 14.6106 8.82924L10.884 5.10258C10.6153 4.8303 10.3362 4.6306 10.0466 4.50349C9.75694 4.37638 9.43988 4.31283 9.09538 4.31283C8.75522 4.31283 8.44611 4.37638 8.16805 4.50349C7.89072 4.6306 7.61591 4.8303 7.34363 5.10258L4.04597 8.40674C3.81341 8.63785 3.62563 8.9141 3.48263 9.23549C3.33963 9.55616 3.2638 9.8873 3.25513 10.2289C3.24791 10.4737 3.26886 10.7088 3.31797 10.9342C3.36708 11.1595 3.44652 11.3718 3.5563 11.5712L2.73513 12.3923C2.55313 12.102 2.41086 11.7676 2.3083 11.3892C2.20575 11.0107 2.15844 10.6243 2.16638 10.23C2.17505 9.73744 2.27363 9.26619 2.46213 8.81624C2.65063 8.3663 2.92075 7.9651 3.27247 7.61266L6.54955 4.33558C6.92727 3.96146 7.32702 3.68341 7.7488 3.50141C8.17058 3.32013 8.62666 3.22949 9.11705 3.22949C9.60744 3.22949 10.0596 3.32049 10.4734 3.50249C10.8879 3.68377 11.2823 3.96146 11.6564 4.33558L12.5989 5.27916L13.5436 4.33558C13.9213 3.96146 14.3174 3.68341 14.732 3.50141C15.1465 3.32013 15.599 3.22949 16.0894 3.22949C16.5798 3.22949 17.0359 3.32049 17.4576 3.50249C17.8787 3.68377 18.2759 3.96146 18.6493 4.33558L22.6858 8.37099C23.0592 8.74438 23.3474 9.16363 23.5503 9.62874C23.7532 10.0939 23.8544 10.5716 23.8536 11.062C23.8536 11.5531 23.7525 12.0056 23.5503 12.4194C23.3481 12.8332 23.0599 13.2276 22.6858 13.6024L14.2391 22.0416C14.0144 22.2669 13.7696 22.4309 13.5046 22.5334C13.2402 22.636 12.9622 22.6872 12.6704 22.6872" fill="white"/>
</svg>
